<svg width="259" height="259" viewBox="0 0 259 259" xmlns="http://www.w3.org/2000/svg">
  <rect width="100%" height="100%" fill="#FFFFFF" />
  <g transform="translate(0, 50)">
    <path d="M122.291 145.572C102.541 143.148 83.3565 149.476 49.6002 140.309C46.1536 139.372 44.8829 143.003 46.7474 146.045C55.8166 160.848 101.628 149.248 122.382 147.11C123.288 147.015 123.196 145.684 122.291 145.572Z" fill="#D7153A"/>
    <path d="M59.8819 119.132C53.0177 109.074 47.4076 97.8218 43.064 85.4429C29.9626 89.268 16.554 94.7882 2.90445 102.012C1.13961 102.944 0.0557817 104.693 0.00179824 106.682C-0.0480326 108.672 0.940279 110.47 2.65529 111.494C29.0864 127.296 54.9279 136.335 79.5858 138.427C72.2441 133.952 65.5128 127.383 59.8819 119.132Z" fill="#D7153A"/>
    <path d="M23.0586 85.5128C29.1047 83.0967 35.0969 81.0245 41.0351 79.2798C38.909 72.3837 37.1649 65.1603 35.7862 57.6218C28.9594 56.7723 21.8959 56.2211 14.5873 55.9807C14.525 55.9807 14.4586 55.9766 14.3963 55.9766C12.482 55.9766 10.7545 56.938 9.74958 58.5792C8.71144 60.27 8.66576 62.3214 9.62916 64.062C13.8731 71.7206 18.3537 78.8695 23.0586 85.5128Z" fill="#D7153A"/>
    <path d="M88.0053 135.572C92.1039 137.379 96.298 138.39 100.363 138.601C90.4097 131.481 82.5904 119.409 78.0848 104.021C72.2795 84.2118 70.3403 62.3549 72.2546 38.774C64.4228 33.8382 55.935 29.2173 46.7952 24.9239C45.0303 24.095 43.0122 24.2566 41.3927 25.3549C39.7773 26.449 38.8845 28.26 39.0049 30.1954C41.1311 64.4105 49.9553 93.1096 65.2285 115.493C71.6317 124.884 79.5092 131.825 88.0053 135.572Z" fill="#D7153A"/>
    <path d="M125.713 95.261C123.686 90.5366 121.452 86.0815 117.985 81.0752C108.176 66.9142 94.9588 54.1416 78.5104 42.8899C78.3402 45.5422 75.94 74.1874 84.3614 102.194C90.7688 123.496 101.715 132.174 107.715 135.527C113.753 138.896 119.276 139.692 125.754 138.084C119.189 129.149 120.007 110.814 125.713 95.261Z" fill="#D7153A"/>
    <path d="M107.488 23.5772C102.803 17.8995 97.7207 12.2841 92.2352 6.73487C91.1721 5.65736 89.8018 5.08545 88.3857 5.08545C87.8791 5.08545 87.3684 5.16005 86.8617 5.30924C84.9391 5.87701 83.548 7.41453 83.1286 9.4245C82.0572 14.5883 80.0183 25.1147 79.1172 35.5251C86.1309 40.1377 92.6089 45.0155 98.5429 50.1461C100.843 41.3893 103.833 32.5164 107.488 23.5772Z" fill="#D7153A"/>
    <path d="M129.144 87.2286C135.784 74.1368 146.39 62.4003 154.354 54.9862C149.982 37.2073 143.25 20.4354 133.957 2.88856C132.998 1.07751 131.195 0 129.148 0C127.101 0 125.303 1.08165 124.34 2.88856C114.951 20.4934 108.103 38.0112 103.963 54.982C112.276 62.6696 123.243 75.2061 129.144 87.2286Z" fill="#D7153A"/>
    <path d="M179.214 35.5207C178.313 25.1145 176.274 14.588 175.203 9.42011C174.787 7.41013 173.392 5.87261 171.47 5.30484C170.963 5.15565 170.452 5.08105 169.946 5.08105C168.53 5.08105 167.159 5.65296 166.096 6.73047C160.611 12.2796 155.528 17.8951 150.844 23.5728C154.498 32.512 157.488 41.3849 159.793 50.1376C165.727 45.0111 172.2 40.1333 179.214 35.5207Z" fill="#D7153A"/>
    <path d="M153.541 133.686C160.426 128.853 167.311 120.432 171.68 108.716C180.138 86.0347 181.014 60.7712 179.802 42.8928C164.471 53.1085 140.137 74.4432 131.827 97.2532C127.916 107.987 126.093 122.608 129.107 130.764C130.366 134.175 132.508 136.761 135.452 137.991C139.912 139.856 146.764 138.447 153.541 133.686Z" fill="#D7153A"/>
    <path d="M180.247 104.025C175.742 119.409 167.918 131.485 157.969 138.605C162.034 138.394 166.232 137.378 170.327 135.571C178.823 131.825 186.7 124.883 193.104 115.496C208.377 93.1132 217.201 64.4142 219.327 30.199C219.448 28.2637 218.555 26.4526 216.939 25.3585C215.32 24.2603 213.302 24.0987 211.537 24.9275C202.397 29.2169 193.909 33.8377 186.077 38.7777C187.992 62.3586 186.048 84.2113 180.247 104.025Z" fill="#D7153A"/>
    <path d="M235.273 85.5133C239.978 78.87 244.459 71.717 248.703 64.0584C249.666 62.3178 249.625 60.2705 248.582 58.5755C247.577 56.9385 245.85 55.9729 243.936 55.9729C243.873 55.9729 243.807 55.9729 243.745 55.977C236.436 56.2174 229.368 56.7727 222.546 57.6182C221.171 65.1566 219.423 72.3801 217.297 79.2761C223.235 81.025 229.231 83.1013 235.273 85.5133Z" fill="#D7153A"/>
    <path d="M255.42 102.007C241.77 94.7836 228.362 89.2634 215.26 85.4382C210.917 97.8172 205.307 109.069 198.442 119.127C192.812 127.382 186.08 133.947 178.734 138.423C203.392 136.33 229.234 127.291 255.665 111.489C257.38 110.465 258.372 108.667 258.318 106.678C258.273 104.688 257.185 102.944 255.42 102.007Z" fill="#D7153A"/>
    <path d="M208.735 140.309C174.979 149.476 155.794 143.148 136.044 145.572C135.139 145.684 135.044 147.019 135.953 147.11C156.712 149.248 202.519 160.848 211.588 146.045C213.452 143.003 212.182 139.372 208.735 140.309Z" fill="#D7153A"/>
  </g>
</svg>
